<svg width="513" height="135" viewBox="0 0 513 135" fill="none" xmlns="http://www.w3.org/2000/svg">
<path d="M66.7109 118.425C94.6452 118.425 117.29 95.7795 117.29 67.8452C117.29 39.9109 94.6452 17.2656 66.7109 17.2656C38.7766 17.2656 16.1313 39.9109 16.1313 67.8452C16.1313 95.7795 38.7766 118.425 66.7109 118.425Z" fill="#00BA67"/>
<path d="M76.4677 71.0004L69.4778 76.4855L80.4481 90.5138L73.4097 95.9504L62.4394 81.9221L55.4495 87.4072L49.9644 80.4173L53.4594 77.699L47.9742 70.7092C42.8289 64.0105 43.0716 54.6421 48.5567 48.2347L43.0716 41.1963C37.9748 34.6918 29.3346 32.556 22.0049 35.4685V26.1972C32.1499 23.6245 43.2658 27.0224 50.11 35.8083L55.8379 43.138C63.0704 40.4682 71.2253 42.7496 75.9823 48.7687L81.4674 55.7586L84.9624 53.0403L90.4475 60.0302L83.4576 65.5153L94.4278 79.5436L87.438 85.0287L76.4677 71.0004Z" fill="white"/>
<path d="M158.939 119.736V107.892H168.793V119.736H167.579V108.669L167.919 109.009H159.861L160.201 108.669V119.785H158.939V119.736Z" fill="#0C0C0C"/>
<path d="M181.267 119.833C180.394 119.833 179.568 119.687 178.84 119.396C178.112 119.105 177.433 118.668 176.899 118.134C176.365 117.6 175.928 116.969 175.588 116.241C175.297 115.513 175.151 114.736 175.151 113.862C175.151 112.988 175.297 112.212 175.588 111.484C175.879 110.756 176.316 110.124 176.899 109.591C177.433 109.057 178.112 108.62 178.84 108.328C179.568 108.037 180.394 107.892 181.316 107.892C182.19 107.892 183.015 108.037 183.743 108.328C184.471 108.62 185.151 109.057 185.684 109.591C186.218 110.124 186.655 110.756 186.995 111.484C187.286 112.212 187.432 113.037 187.432 113.862C187.432 114.736 187.286 115.513 186.995 116.241C186.704 116.969 186.267 117.6 185.684 118.134C185.151 118.668 184.471 119.105 183.743 119.396C182.966 119.687 182.141 119.833 181.267 119.833ZM181.267 118.716C181.947 118.716 182.626 118.619 183.209 118.376C183.791 118.134 184.325 117.794 184.762 117.357C185.199 116.92 185.539 116.386 185.782 115.804C186.024 115.221 186.17 114.542 186.17 113.862C186.17 113.183 186.024 112.503 185.782 111.92C185.539 111.338 185.199 110.804 184.762 110.367C184.325 109.93 183.791 109.591 183.209 109.348C182.626 109.105 181.947 109.008 181.267 109.008C180.588 109.008 179.908 109.105 179.326 109.348C178.743 109.591 178.209 109.93 177.772 110.367C177.335 110.804 176.996 111.338 176.753 111.92C176.51 112.503 176.365 113.183 176.365 113.862C176.365 114.542 176.51 115.221 176.753 115.804C176.996 116.386 177.335 116.92 177.772 117.357C178.209 117.794 178.743 118.134 179.326 118.376C179.908 118.619 180.539 118.716 181.267 118.716Z" fill="#0C0C0C"/>
<path d="M193.742 119.736V107.892H202.286V108.96H194.956V112.843H198.791C200.15 112.843 201.218 113.134 201.946 113.717C202.674 114.299 203.014 115.124 203.014 116.241C203.014 117.357 202.625 118.231 201.849 118.862C201.072 119.493 199.956 119.784 198.499 119.784H193.742V119.736ZM194.956 118.765H198.499C199.567 118.765 200.393 118.571 200.926 118.134C201.46 117.697 201.752 117.114 201.752 116.289C201.752 114.687 200.684 113.862 198.499 113.862H194.956V118.765Z" fill="#0C0C0C"/>
<path d="M212.382 117.6L207.334 107.892H208.644L213.062 116.581L212.382 117.6ZM208.741 118.571C209.324 118.813 209.858 118.862 210.343 118.716C210.829 118.619 211.314 118.182 211.751 117.503L212.333 116.581L212.431 116.435L216.896 107.843H218.11L212.819 117.746C212.479 118.425 212.042 118.959 211.557 119.299C211.071 119.639 210.537 119.833 210.003 119.833C209.47 119.833 208.936 119.736 208.353 119.542L208.741 118.571Z" fill="#0C0C0C"/>
<path d="M225.925 119.736V108.669L226.265 109.008H221.799V107.94H231.216V109.008H226.799L227.139 108.669V119.784H225.925V119.736Z" fill="#0C0C0C"/>
<path d="M241.798 119.833C240.924 119.833 240.099 119.687 239.371 119.396C238.643 119.105 237.963 118.668 237.429 118.134C236.895 117.6 236.458 116.969 236.119 116.241C235.827 115.513 235.682 114.736 235.682 113.862C235.682 112.988 235.827 112.212 236.119 111.484C236.41 110.756 236.847 110.124 237.429 109.591C237.963 109.057 238.643 108.62 239.371 108.328C240.099 108.037 240.924 107.892 241.846 107.892C242.72 107.892 243.545 108.037 244.273 108.328C245.001 108.62 245.681 109.057 246.215 109.591C246.749 110.124 247.186 110.756 247.526 111.484C247.817 112.212 247.962 113.037 247.962 113.862C247.962 114.736 247.817 115.513 247.526 116.241C247.234 116.969 246.798 117.6 246.215 118.134C245.681 118.668 245.001 119.105 244.273 119.396C243.497 119.687 242.672 119.833 241.798 119.833ZM241.798 118.716C242.477 118.716 243.157 118.619 243.739 118.376C244.322 118.134 244.856 117.794 245.293 117.357C245.73 116.92 246.069 116.386 246.312 115.804C246.555 115.221 246.7 114.542 246.7 113.862C246.7 113.183 246.555 112.503 246.312 111.92C246.069 111.338 245.73 110.804 245.293 110.367C244.856 109.93 244.322 109.591 243.739 109.348C243.157 109.105 242.477 109.008 241.798 109.008C241.118 109.008 240.439 109.105 239.856 109.348C239.274 109.591 238.74 109.93 238.303 110.367C237.866 110.804 237.526 111.338 237.283 111.92C237.041 112.503 236.895 113.183 236.895 113.862C236.895 114.542 237.041 115.221 237.283 115.804C237.526 116.386 237.866 116.92 238.303 117.357C238.74 117.794 239.274 118.134 239.856 118.376C240.439 118.619 241.118 118.716 241.798 118.716Z" fill="#0C0C0C"/>
<path d="M254.321 119.736V107.892H259.175C260.389 107.892 261.36 108.134 262.088 108.668C262.816 109.202 263.156 109.93 263.156 110.95C263.156 111.92 262.816 112.649 262.136 113.183C261.457 113.668 260.583 113.911 259.467 113.911L259.758 113.474C261.068 113.474 262.039 113.717 262.719 114.25C263.398 114.784 263.738 115.513 263.738 116.532C263.738 117.551 263.398 118.328 262.67 118.91C261.942 119.444 260.923 119.736 259.467 119.736H254.321ZM255.535 113.28H259.127C260.049 113.28 260.729 113.085 261.214 112.746C261.7 112.357 261.942 111.823 261.942 111.095C261.942 110.367 261.7 109.833 261.214 109.445C260.729 109.057 260.049 108.911 259.127 108.911H255.535V113.28ZM255.535 118.765H259.515C260.486 118.765 261.263 118.571 261.748 118.231C262.282 117.842 262.525 117.26 262.525 116.483C262.525 115.707 262.282 115.173 261.748 114.784C261.214 114.445 260.486 114.25 259.515 114.25H255.535V118.765Z" fill="#0C0C0C"/>
<path d="M268.495 119.736L273.835 107.892H275.048L280.388 119.736H279.077L274.175 108.62H274.66L269.757 119.736H268.495ZM270.631 116.58L271.019 115.561H277.815L278.204 116.58H270.631Z" fill="#0C0C0C"/>
<path d="M296.164 119.736V108.669L296.503 109.008H292.038V107.94H301.455V109.008H297.037L297.377 108.669V119.784H296.164V119.736Z" fill="#0C0C0C"/>
<path d="M308.299 118.668H315.337V119.736H307.085V107.892H315.094V108.96H308.299V118.668ZM308.202 113.183H314.366V114.25H308.202V113.183Z" fill="#0C0C0C"/>
<path d="M320.046 107.892H321.453L324.754 112.552L328.055 107.892H329.511L325.531 113.571L329.851 119.736H328.395L324.754 114.639L321.113 119.736H319.706L323.977 113.619L320.046 107.892Z" fill="#0C0C0C"/>
<path d="M336.453 119.736H335.239V107.892H336.453V119.736ZM343.879 114.299H336.307V113.183H343.879V114.299ZM343.782 107.892H344.996V119.736H343.782V107.892Z" fill="#0C0C0C"/>
<path d="M352.325 119.736V107.892H353.539V119.736H352.325Z" fill="#0C0C0C"/>
<path d="M360.917 119.736V107.892H362.131V119.736H360.917ZM361.742 114.299V113.183H365.383V114.299H361.742ZM365.529 113.959L364.412 113.765L368.781 107.892H370.14L365.529 113.959ZM368.926 119.736L364.412 113.814L365.432 113.183L370.334 119.687H368.926V119.736Z" fill="#0C0C0C"/>
<path d="M373.781 119.736L379.12 107.892H380.334L385.673 119.736H384.362L379.46 108.62H379.945L375.043 119.736H373.781ZM375.916 116.58L376.305 115.561H383.1L383.489 116.58H375.916Z" fill="#0C0C0C"/>
<path d="M397.76 118.328L398.196 117.454C398.73 117.891 399.264 118.231 399.944 118.473C400.575 118.716 401.206 118.813 401.885 118.813C402.517 118.813 403.148 118.716 403.682 118.522C404.215 118.328 404.652 118.037 404.992 117.648C405.332 117.26 405.477 116.823 405.477 116.289C405.477 115.61 405.186 115.076 404.652 114.687C404.118 114.299 403.342 114.153 402.419 114.153H399.895V113.134H402.322C403.148 113.134 403.779 112.94 404.264 112.6C404.749 112.26 404.944 111.775 404.944 111.144C404.944 110.707 404.798 110.319 404.555 109.979C404.313 109.639 403.924 109.396 403.487 109.251C403.05 109.057 402.517 108.959 401.983 108.959C401.449 108.959 400.866 109.008 400.235 109.202C399.653 109.348 399.07 109.639 398.488 109.979L398.099 108.959C398.779 108.523 399.507 108.231 400.235 108.086C400.963 107.94 401.691 107.892 402.419 107.94C403.099 107.989 403.73 108.183 404.313 108.425C404.895 108.717 405.332 109.057 405.672 109.493C406.011 109.93 406.157 110.464 406.157 111.047C406.157 111.629 406.011 112.115 405.72 112.551C405.429 112.988 405.041 113.328 404.555 113.522C404.07 113.765 403.439 113.862 402.759 113.862L402.808 113.474C403.584 113.474 404.264 113.619 404.846 113.862C405.429 114.105 405.866 114.445 406.206 114.93C406.545 115.367 406.691 115.901 406.691 116.532C406.691 117.114 406.545 117.6 406.254 118.085C405.963 118.522 405.575 118.91 405.089 119.202C404.604 119.493 404.021 119.736 403.439 119.833C402.808 119.978 402.177 119.978 401.497 119.93C400.818 119.881 400.187 119.736 399.507 119.493C398.876 119.153 398.293 118.765 397.76 118.328Z" fill="#0C0C0C"/>
<path d="M425.816 119.833C424.991 119.833 424.214 119.687 423.535 119.396C422.807 119.105 422.224 118.668 421.69 118.134C421.156 117.6 420.768 116.969 420.477 116.241C420.185 115.513 420.04 114.687 420.04 113.862C420.04 112.988 420.185 112.212 420.477 111.484C420.768 110.756 421.156 110.124 421.69 109.591C422.224 109.057 422.855 108.62 423.535 108.328C424.263 108.037 424.991 107.892 425.816 107.892C426.738 107.892 427.564 108.037 428.292 108.328C429.068 108.62 429.699 109.057 430.233 109.639L429.457 110.416C428.971 109.93 428.437 109.542 427.806 109.348C427.175 109.105 426.544 109.008 425.865 109.008C425.185 109.008 424.603 109.154 424.02 109.396C423.438 109.639 422.952 109.979 422.564 110.416C422.127 110.853 421.836 111.387 421.593 111.969C421.35 112.552 421.253 113.231 421.253 113.911C421.253 114.59 421.35 115.27 421.593 115.852C421.836 116.435 422.176 116.969 422.564 117.406C423.001 117.842 423.486 118.182 424.02 118.425C424.603 118.668 425.185 118.813 425.865 118.813C426.544 118.813 427.224 118.716 427.806 118.474C428.389 118.231 428.971 117.891 429.457 117.406L430.233 118.182C429.699 118.765 429.068 119.202 428.292 119.493C427.515 119.687 426.69 119.833 425.816 119.833ZM427.272 113.425V114.445H420.816V113.425H427.272Z" fill="#0C0C0C"/>
<path d="M436.204 119.736V107.892H441.058C442.271 107.892 443.242 108.134 443.97 108.668C444.699 109.202 445.038 109.93 445.038 110.95C445.038 111.92 444.698 112.649 444.019 113.183C443.339 113.668 442.466 113.911 441.349 113.911L441.64 113.474C442.951 113.474 443.922 113.717 444.601 114.25C445.281 114.784 445.621 115.513 445.621 116.532C445.621 117.551 445.281 118.328 444.553 118.91C443.825 119.493 442.805 119.736 441.349 119.736H436.204ZM437.417 113.28H441.009C441.932 113.28 442.611 113.085 443.097 112.746C443.582 112.357 443.825 111.823 443.825 111.095C443.825 110.367 443.582 109.833 443.097 109.445C442.611 109.057 441.932 108.911 441.009 108.911H437.417V113.28ZM437.417 118.765H441.398C442.369 118.765 443.145 118.571 443.631 118.231C444.165 117.842 444.407 117.26 444.407 116.483C444.407 115.707 444.165 115.173 443.631 114.784C443.097 114.445 442.369 114.25 441.398 114.25H437.417V118.765Z" fill="#0C0C0C"/>
<path d="M452.125 119.736V107.892H456.494C457.465 107.892 458.339 108.037 459.067 108.377C459.795 108.717 460.329 109.154 460.717 109.785C461.106 110.367 461.3 111.095 461.3 111.969C461.3 112.794 461.106 113.522 460.717 114.105C460.329 114.687 459.795 115.173 459.067 115.513C458.339 115.852 457.514 115.998 456.494 115.998H452.805L453.339 115.415V119.736H452.125ZM453.339 115.513L452.805 114.881H456.446C457.611 114.881 458.484 114.639 459.115 114.105C459.746 113.571 460.038 112.891 460.038 111.92C460.038 110.95 459.746 110.222 459.115 109.736C458.484 109.202 457.611 108.96 456.446 108.96H452.805L453.339 108.377V115.513Z" fill="#0C0C0C"/>
<path d="M472.513 119.833C471.639 119.833 470.814 119.687 470.086 119.396C469.357 119.105 468.678 118.668 468.144 118.134C467.61 117.6 467.173 116.969 466.833 116.241C466.542 115.513 466.396 114.736 466.396 113.862C466.396 112.988 466.542 112.212 466.833 111.484C467.125 110.756 467.561 110.124 468.144 109.591C468.678 109.057 469.357 108.62 470.086 108.328C470.814 108.037 471.639 107.892 472.561 107.892C473.435 107.892 474.26 108.037 474.988 108.328C475.716 108.62 476.396 109.057 476.93 109.591C477.464 110.124 477.901 110.756 478.24 111.484C478.532 112.212 478.677 113.037 478.677 113.862C478.677 114.736 478.532 115.513 478.24 116.241C477.949 116.969 477.512 117.6 476.93 118.134C476.396 118.668 475.716 119.105 474.988 119.396C474.163 119.687 473.386 119.833 472.513 119.833ZM472.513 118.716C473.192 118.716 473.872 118.619 474.454 118.376C475.037 118.134 475.571 117.794 476.008 117.357C476.444 116.92 476.784 116.386 477.027 115.804C477.27 115.221 477.415 114.542 477.415 113.862C477.415 113.183 477.27 112.503 477.027 111.92C476.784 111.338 476.444 110.804 476.008 110.367C475.571 109.93 475.037 109.591 474.454 109.348C473.872 109.105 473.192 109.008 472.513 109.008C471.833 109.008 471.154 109.105 470.571 109.348C469.989 109.591 469.455 109.93 469.018 110.367C468.581 110.804 468.241 111.338 467.998 111.92C467.756 112.503 467.61 113.183 467.61 113.862C467.61 114.542 467.756 115.221 467.998 115.804C468.241 116.386 468.581 116.92 469.018 117.357C469.455 117.794 469.989 118.134 470.571 118.376C471.154 118.619 471.785 118.716 472.513 118.716Z" fill="#0C0C0C"/>
<path d="M484.988 119.736V107.892H494.841V119.736H493.628V108.668L493.968 109.008H485.91L486.25 108.668V119.784H484.988V119.736Z" fill="#0C0C0C"/>
<path d="M502.171 119.736V107.892H503.385V117.697L510.86 107.892H511.976V119.736H510.763V109.93L503.288 119.736H502.171Z" fill="#0C0C0C"/>
<path d="M185.782 31.6338C193.694 31.6338 200.101 34.4492 205.004 40.0314C209.906 45.6136 212.333 52.2637 212.333 59.8846C212.333 60.6612 212.285 61.7777 212.139 63.1853H165.152C165.88 68.6219 168.161 72.8935 172.045 76.0972C175.928 79.2524 180.733 80.8542 186.413 80.8542C190.49 80.8542 193.985 80.029 196.946 78.3301C199.907 76.6797 202.14 74.4468 203.645 71.7285L209.858 75.3691C207.528 79.1553 204.276 82.1648 200.247 84.3492C196.169 86.582 191.558 87.6499 186.364 87.6499C177.967 87.6499 171.122 85.0287 165.831 79.7378C160.54 74.4468 157.919 67.7482 157.919 59.6419C157.919 51.6326 160.54 44.9825 165.734 39.643C170.88 34.3521 177.578 31.6338 185.782 31.6338ZM185.782 38.478C180.199 38.478 175.588 40.1284 171.802 43.4292C168.064 46.73 165.831 51.0501 165.103 56.3411H205.004C204.276 50.7103 202.091 46.3417 198.499 43.1865C194.859 40.0799 190.636 38.478 185.782 38.478Z" fill="#0C0C0C"/>
<path d="M261.214 32.9443H268.253V86.4364H261.214V78.0873C257.234 84.4947 251.215 87.6984 243.254 87.6984C236.75 87.6984 231.653 85.7082 227.915 81.7764C224.178 77.7961 222.284 72.5051 222.284 65.8065V32.9443H229.323V65.758C229.323 70.515 230.585 74.2526 233.109 76.8738C235.633 79.495 239.225 80.8542 243.837 80.8542C248.982 80.8542 253.156 79.2523 256.36 76.0001C259.564 72.7478 261.166 67.7481 261.166 60.9524V32.9443H261.214Z" fill="#0C0C0C"/>
<path d="M288.785 46.9725C288.785 49.3995 289.853 51.3412 291.989 52.7489C294.125 54.1565 296.746 55.273 299.804 56.0496C302.862 56.8263 305.92 57.7 308.978 58.6708C312.036 59.6417 314.658 61.2435 316.794 63.4764C318.929 65.7093 319.997 68.6703 319.997 72.3108C319.997 76.8737 318.201 80.5628 314.609 83.4267C311.017 86.2906 306.357 87.6983 300.629 87.6983C295.484 87.6983 291.115 86.5333 287.523 84.2519C283.931 81.9705 281.407 79.0095 280 75.3689L285.97 71.8254C286.989 74.5922 288.785 76.7766 291.358 78.427C293.979 80.0288 297.037 80.854 300.629 80.854C304.124 80.854 307.037 80.1744 309.415 78.7668C311.745 77.3591 312.959 75.2233 312.959 72.3108C312.959 69.8838 311.891 67.9421 309.755 66.5345C307.619 65.1268 304.998 64.0103 301.94 63.2337C298.882 62.457 295.824 61.5833 292.717 60.6125C289.659 59.6417 287.038 58.0398 284.902 55.8069C282.766 53.5741 281.698 50.6131 281.698 46.9725C281.698 42.6038 283.446 39.0118 286.892 36.0508C290.339 33.1384 294.707 31.6821 299.998 31.6821C304.367 31.6821 308.153 32.6529 311.454 34.6431C314.755 36.5848 317.182 39.2545 318.735 42.6038L312.862 46.0502C310.774 41.0505 306.503 38.5749 300.047 38.5749C296.989 38.5749 294.319 39.303 292.135 40.7593C289.902 42.167 288.785 44.2542 288.785 46.9725Z" fill="#0C0C0C"/>
<path d="M358.005 39.7887H342.617V72.214C342.617 75.1264 343.2 77.2137 344.316 78.4758C345.433 79.7378 347.18 80.3689 349.462 80.4174C351.743 80.4659 354.607 80.4174 358.005 80.2718V86.485C350.529 87.6014 344.899 87.0675 341.161 84.8831C337.423 82.6503 335.53 78.4758 335.53 72.2625V39.7887H324.317V32.9444H335.53V20.0811L342.569 17.9453V32.9444H357.956V39.7887H358.005Z" fill="#0C0C0C"/>
<path d="M411.4 79.6405C405.963 85.0285 399.313 87.6983 391.449 87.6983C383.586 87.6983 376.936 85.0285 371.499 79.6405C366.062 74.2525 363.296 67.6024 363.296 59.6902C363.296 51.778 366.014 45.1279 371.499 39.7399C376.936 34.3519 383.586 31.6821 391.449 31.6821C399.313 31.6821 405.963 34.3519 411.4 39.7399C416.836 45.1279 419.603 51.778 419.603 59.6902C419.603 67.6024 416.885 74.2525 411.4 79.6405ZM376.499 74.6893C380.576 78.8153 385.576 80.854 391.498 80.854C397.42 80.854 402.42 78.8153 406.448 74.6893C410.526 70.6119 412.565 65.5636 412.565 59.6417C412.565 53.7197 410.526 48.72 406.448 44.594C402.371 40.5166 397.371 38.4293 391.498 38.4293C385.576 38.4293 380.576 40.468 376.499 44.594C372.421 48.6714 370.383 53.7197 370.383 59.6417C370.383 65.6122 372.421 70.6119 376.499 74.6893Z" fill="#0C0C0C"/>
<path d="M438.437 41.8275C441.738 35.323 447.368 32.0708 455.329 32.0708V38.9151C450.475 38.9151 446.446 40.3227 443.242 43.1867C440.039 46.0506 438.437 50.5163 438.437 56.681V86.4366H431.398V32.9445H438.437V41.8275Z" fill="#0C0C0C"/>
<path d="M486.444 31.6338C494.356 31.6338 500.763 34.4492 505.666 40.0314C510.569 45.6136 512.996 52.2637 512.996 59.8846C512.996 60.6612 512.947 61.7777 512.801 63.1853H465.862C466.591 68.6219 468.872 72.8935 472.755 76.0972C476.639 79.2524 481.444 80.8542 487.123 80.8542C491.201 80.8542 494.696 80.029 497.657 78.3301C500.618 76.6797 502.851 74.4468 504.355 71.7285L510.569 75.3691C508.239 79.1553 504.986 82.1648 500.958 84.3492C496.88 86.582 492.269 87.6499 487.075 87.6499C478.677 87.6499 471.833 85.0287 466.542 79.7378C461.251 74.4468 458.63 67.7482 458.63 59.6419C458.63 51.6326 461.251 44.9825 466.445 39.643C471.542 34.3521 478.24 31.6338 486.444 31.6338ZM486.444 38.478C480.862 38.478 476.25 40.1284 472.464 43.4292C468.726 46.73 466.494 51.0501 465.765 56.3411H505.666C504.938 50.7103 502.802 46.3417 499.161 43.1865C495.521 40.0799 491.298 38.478 486.444 38.478Z" fill="#0C0C0C"/>
<path d="M67.0021 132.842C103.193 132.842 132.532 103.503 132.532 67.3114C132.532 31.1201 103.193 1.78125 67.0021 1.78125C30.8108 1.78125 1.47192 31.1201 1.47192 67.3114C1.47192 103.503 30.8108 132.842 67.0021 132.842Z" stroke="#00BA67" stroke-width="2.75193" stroke-miterlimit="10"/>
<path opacity="0.45" d="M66.5652 86.2426C46.8091 86.2426 28.8975 78.0392 15.7429 64.7875C17.8302 37.3134 39.7706 15.7612 66.5652 15.7612C93.3597 15.7612 115.3 37.3619 117.387 64.7875C104.184 78.0877 86.2728 86.2426 66.5652 86.2426Z" fill="url(#paint0_linear_1_1596)"/>
<path opacity="0.37" d="M66.5653 39.8372C79.6746 39.8372 90.3018 35.2299 90.3018 29.5465C90.3018 23.8631 79.6746 19.2559 66.5653 19.2559C53.456 19.2559 42.8289 23.8631 42.8289 29.5465C42.8289 35.2299 53.456 39.8372 66.5653 39.8372Z" fill="url(#paint1_linear_1_1596)"/>
<defs>
<linearGradient id="paint0_linear_1_1596" x1="69.2929" y1="174.416" x2="65.6112" y2="27.1486" gradientUnits="userSpaceOnUse">
<stop stop-color="white"/>
<stop offset="0.2606" stop-color="white" stop-opacity="0.7394"/>
<stop offset="1" stop-color="white" stop-opacity="0"/>
</linearGradient>
<linearGradient id="paint1_linear_1_1596" x1="66.9282" y1="92.9194" x2="66.4603" y2="6.13323" gradientUnits="userSpaceOnUse">
<stop stop-color="white"/>
<stop offset="0.2606" stop-color="white" stop-opacity="0.7394"/>
<stop offset="1" stop-color="white" stop-opacity="0"/>
</linearGradient>
</defs>
</svg>
